# xmcd
#
# Track frame offsets: 
#        150
#        17389
#        29161
#        41771
#        56748
#        93125
#        110728
#        128932
#        142545
#        156238
#        172518
#        194013
#        223644
#        259253
#        282523
#
# Disc length: 3989 seconds
#
# Revision: 0
# Processed by: cddbd v1.5.2PL0 Copyright (c) Steve Scherf et al.
# Submitted via: ExactAudioCopy v1.0b3
#
DISCID=d60f930f
DTITLE=Various Artist - The Original Soul Selection - CD21 - Smooth Soul
DYEAR=2005
DGENRE=Soul
TTITLE0=Bobby Womack - Across 110th Street
TTITLE1=Syl Johnson - We Did It
TTITLE2=Betty Wright - Clean Up Woman
TTITLE3=First Choice - Love And Happiness
TTITLE4=Stephanie Mills - Whatcha Gonna Do With My Lovin'
TTITLE5=Jeffrey Osborne - Don't You Get So Mad About It
TTITLE6=The Four Tops - I Just Can't Get You Out Of My Mind
TTITLE7=The Chi-Lites - Stoned Out Of My Mind
TTITLE8=Bobo Mr. Soul - Hitch Hiking To Heartbreak
TTITLE9=Loose Change - Rising Cost Of Love
TTITLE10=Alicia Myers - I Want To Thank You
TTITLE11=Patti Jo - Make Me Believe In You
TTITLE12=Gregg Diamond's Bionic Boogie - Hot Butterfly
TTITLE13=Jean Carn - My Love Don't Come Easy
TTITLE14=The Jones Girls - Nights Over Egypt
EXTD=
EXTT0=
EXTT1=
EXTT2=
EXTT3=
EXTT4=
EXTT5=
EXTT6=
EXTT7=
EXTT8=
EXTT9=
EXTT10=
EXTT11=
EXTT12=
EXTT13=
EXTT14=
PLAYORDER=
